# File created by Blade
# Date/Time:  Wed Jan 21 14:55:15 2015
# Frame Rate: 120.000 fps
#------------------------------------------------------
:FULLY-SPECIFIED
:DEGREES
387
root 18.669414 17.732093 -19.653919 -109.991463 81.237022 -125.822366
Spine -0.982795 -5.765783 11.806834
Head 15.836268 3.037533 -5.664231
LeftShoulder -13.111462 -25.554300 3.519425
LeftArm -12.265521 3.095526 -30.583309
LeftForeArm 5.073084 0.000000 3.633424
LeftHand -3.491865 0.000000 0.875773
LeftHandThumb1 -26.253704 0.000000 33.147579
RightShoulder -7.988790 -12.181500 -3.031926
RightArm 13.185823 20.261827 37.405409
RightForeArm -27.931665 -0.000000 13.838184
RightHand -2.900399 -0.000000 3.208350
RightHandThumb1 -24.326973 -0.000000 -32.862282
LeftUpLeg 8.832248 13.925175 7.814662
LeftLeg 77.678150 -0.000000 -0.000000
LeftFoot -20.090148 22.408356 -12.836100
LeftToeBase -60.861852 -0.000000 0.000000
RightUpLeg -103.044215 13.087600 10.642754
RightLeg 108.038257 -0.000000 -0.000000
RightFoot -40.614798 -23.231854 15.422163
RightToeBase 22.678909 -0.000000 -0.000000
388
root 18.662825 17.739071 -19.667277 -108.998998 81.193855 -124.912958
Spine -1.144313 -5.678574 11.998846
Head 15.524935 3.066347 -5.623827
LeftShoulder -13.045840 -25.660815 3.686093
LeftArm -12.314503 3.008686 -30.097160
LeftForeArm 4.974667 -0.000000 3.626205
LeftHand -3.515759 -0.000000 0.991827
LeftHandThumb1 -26.253704 0.000000 33.147579
RightShoulder -7.898742 -12.146031 -3.161559
RightArm 13.192599 20.603907 36.953991
RightForeArm -27.760319 -0.000000 13.863200
RightHand -2.932314 -0.000000 2.982122
RightHandThumb1 -24.326973 -0.000000 -32.862282
LeftUpLeg 8.752932 14.019482 7.868775
LeftLeg 77.693603 -0.000000 -0.000000
LeftFoot -20.055410 22.271524 -12.740371
LeftToeBase -61.209777 -0.000000 0.000000
RightUpLeg -103.086974 13.138198 10.724875
RightLeg 107.978570 -0.000000 -0.000000
RightFoot -40.425035 -23.248108 15.188048
RightToeBase 22.763244 -0.000000 -0.000000
389
root 18.656147 17.744262 -19.679575 -108.378423 81.151361 -124.385981
Spine -1.318564 -5.624521 12.152198
Head 15.230929 3.022934 -5.582303
LeftShoulder -12.969773 -25.662279 3.814563
LeftArm -12.232298 2.665481 -29.555739
LeftForeArm 5.071758 -0.000000 3.553548
LeftHand -3.559743 -0.000000 1.064141
LeftHandThumb1 -26.253704 0.000000 33.147579
RightShoulder -7.827638 -12.090516 -3.288925
RightArm 13.174267 21.140690 36.580595
RightForeArm -27.881217 0.000000 13.939463
RightHand -2.886091 -0.000000 2.982086
RightHandThumb1 -24.326973 -0.000000 -32.862282
LeftUpLeg 8.648128 14.083557 7.934993
LeftLeg 77.738379 -0.000000 -0.000000
LeftFoot -19.977208 22.106753 -12.590231
LeftToeBase -61.625719 -0.000000 0.000000
RightUpLeg -103.163022 13.158054 10.753762
RightLeg 107.912721 -0.000000 -0.000000
RightFoot -40.205095 -23.228362 15.045730
RightToeBase 22.859636 -0.000000 -0.000000
390
root 18.649837 17.749712 -19.693530 -108.128028 81.123515 -124.239238
Spine -1.502506 -5.617598 12.252865
Head 14.930434 2.970974 -5.479444
LeftShoulder -12.978639 -25.651342 4.005643
LeftArm -12.051075 2.505404 -29.132128
LeftForeArm 4.813079 0.000000 3.390483
LeftHand -3.540347 0.000000 1.288273
LeftHandThumb1 -26.253704 0.000000 33.147579
RightShoulder -7.749633 -12.016816 -3.393568
RightArm 13.158879 21.652076 36.223058
RightForeArm -27.928022 -0.000000 13.953472
RightHand -2.916113 -0.000000 2.666405
RightHandThumb1 -24.326973 -0.000000 -32.862282
LeftUpLeg 8.499123 14.069871 7.930787
LeftLeg 77.810626 -0.000000 -0.000000
LeftFoot -19.883619 21.950475 -12.508047
LeftToeBase -61.977893 -0.000000 0.000000
RightUpLeg -103.267075 13.122732 10.749932
RightLeg 107.859201 -0.000000 -0.000000
RightFoot -39.891558 -23.131244 14.918939
RightToeBase 22.902227 -0.000000 -0.000000
391
root 18.645792 17.757015 -19.707405 -107.859465 81.090235 -124.070931
Spine -1.699612 -5.586756 12.352215
Head 14.662829 2.888105 -5.391361
LeftShoulder -12.922048 -25.778823 4.191694
LeftArm -12.018372 2.330945 -28.630611
LeftForeArm 4.897846 -0.000000 3.272745
LeftHand -3.444422 -0.000000 1.172538
LeftHandThumb1 -26.253704 0.000000 33.147579
RightShoulder -7.678462 -11.934185 -3.487160
RightArm 13.121138 22.173830 35.869121
RightForeArm -27.863861 0.000000 13.945446
RightHand -2.895911 -0.000000 2.450544
RightHandThumb1 -24.326973 -0.000000 -32.862282
LeftUpLeg 8.342965 14.059426 7.931198
LeftLeg 77.885120 -0.000000 -0.000000
LeftFoot -19.719161 21.825836 -12.356049
LeftToeBase -62.407517 -0.000000 0.000000
RightUpLeg -103.360687 13.093553 10.744152
RightLeg 107.791570 -0.000000 -0.000000
RightFoot -39.650923 -23.184023 14.690463
RightToeBase 23.595237 -0.000000 -0.000000
392
root 18.642097 17.763325 -19.719861 -107.784435 81.079708 -124.102180
Spine -1.909627 -5.543357 12.385178
Head 14.426679 2.799358 -5.248306
LeftShoulder -12.871299 -25.862677 4.411312
LeftArm -11.868972 1.797960 -28.122987
LeftForeArm 5.105439 0.000000 3.038563
LeftHand -3.426993 -0.000000 1.380012
LeftHandThumb1 -26.253704 0.000000 33.147579
RightShoulder -7.679253 -11.867810 -3.535715
RightArm 13.135328 22.816327 35.577639
RightForeArm -28.092601 -0.000000 13.938920
RightHand -2.883186 0.000000 2.270670
RightHandThumb1 -24.326973 -0.000000 -32.862282
LeftUpLeg 8.170799 14.016947 7.890527
LeftLeg 77.959681 -0.000000 -0.000000
LeftFoot -19.642134 21.686453 -12.324920
LeftToeBase -62.814872 -0.000000 0.000000
RightUpLeg -103.473808 13.054627 10.701283
RightLeg 107.741631 -0.000000 -0.000000
RightFoot -39.401187 -23.146259 14.544388
RightToeBase 24.027272 -0.000000 -0.000000
393
root 18.641746 17.767714 -19.731295 -107.741293 81.072646 -124.140184
Spine -2.099875 -5.491276 12.408410
Head 14.175123 2.737529 -5.096528
LeftShoulder -12.855785 -25.923895 4.645263
LeftArm -11.704154 1.465608 -27.669694
LeftForeArm 5.171949 0.000000 2.853867
LeftHand -3.367133 0.000000 1.344636
LeftHandThumb1 -26.253704 0.000000 33.147579
RightShoulder -7.668899 -11.745803 -3.640017
RightArm 13.068862 23.510038 35.365713
RightForeArm -28.405611 -0.000000 14.007869
RightHand -2.928839 0.000000 2.230944
RightHandThumb1 -24.326973 -0.000000 -32.862282
LeftUpLeg 8.040625 13.989923 7.866912
LeftLeg 78.039903 -0.000000 -0.000000
LeftFoot -19.471880 21.610778 -12.152991
LeftToeBase -63.076558 -0.000000 0.000000
RightUpLeg -103.573689 13.013442 10.656766
RightLeg 107.720380 -0.000000 -0.000000
RightFoot -39.187637 -23.049557 14.478022
RightToeBase 24.176462 -0.000000 -0.000000
394
root 18.641196 17.772706 -19.740636 -107.812392 81.065602 -124.285614
Spine -2.273081 -5.445257 12.402751
Head 13.897945 2.582593 -4.933714
LeftShoulder -12.817653 -26.199121 4.940895
LeftArm -11.730201 1.428502 -27.266809
LeftForeArm 5.121653 0.000000 2.811401
LeftHand -3.440420 -0.000000 1.454510
LeftHandThumb1 -26.253704 0.000000 33.147579
RightShoulder -7.683671 -11.516832 -3.744035
RightArm 12.931032 24.168922 35.169751
RightForeArm -28.712323 -0.000000 14.116800
RightHand -2.941991 -0.000000 2.230489
RightHandThumb1 -24.326973 -0.000000 -32.862282
LeftUpLeg 7.904982 13.953074 7.837103
LeftLeg 78.123454 -0.000000 -0.000000
LeftFoot -19.284161 21.569288 -11.968149
LeftToeBase -63.406198 -0.000000 0.000000
RightUpLeg -103.671097 12.968684 10.613806
RightLeg 107.708280 -0.000000 -0.000000
RightFoot -39.048788 -22.965051 14.491153
RightToeBase 24.392352 -0.000000 -0.000000
395
root 18.643586 17.776905 -19.749975 -107.860892 81.067042 -124.369434
Spine -2.424238 -5.374086 12.388160
Head 13.658514 2.431397 -4.804543
LeftShoulder -12.759303 -26.401028 5.186458
LeftArm -11.678009 1.200084 -26.819177
LeftForeArm 5.107382 -0.000000 2.711206
LeftHand -3.447862 0.000000 1.498373
LeftHandThumb1 -26.253704 0.000000 33.147579
RightShoulder -7.685253 -11.266841 -3.890034
RightArm 12.743059 24.949608 35.051496
RightForeArm -29.273438 0.000000 14.249716
RightHand -3.029468 -0.000000 2.296067
RightHandThumb1 -24.326973 -0.000000 -32.862282
LeftUpLeg 7.826927 13.915697 7.808916
LeftLeg 78.189781 -0.000000 -0.000000
LeftFoot -19.169710 21.510223 -11.923811
LeftToeBase -63.443567 -0.000000 0.000000
RightUpLeg -103.723174 12.937730 10.569792
RightLeg 107.706473 -0.000000 -0.000000
RightFoot -38.922775 -22.848085 14.589852
RightToeBase 24.202471 -0.000000 -0.000000
396
root 18.647409 17.781241 -19.757918 -107.964030 81.062291 -124.504816
Spine -2.584187 -5.313651 12.375712
Head 13.427735 2.277564 -4.686973
LeftShoulder -12.757547 -26.548417 5.414085
LeftArm -11.534752 1.072376 -26.406305
LeftForeArm 4.943160 -0.000000 2.650449
LeftHand -3.531102 0.000000 1.540620
LeftHandThumb1 -26.253704 0.000000 33.147579
RightShoulder -7.711572 -11.099929 -4.007818
RightArm 12.604776 25.722290 34.902489
RightForeArm -29.748874 -0.000000 14.352631
RightHand -2.992091 0.000000 2.403312
RightHandThumb1 -24.326973 -0.000000 -32.862282
LeftUpLeg 7.755371 13.863121 7.781478
LeftLeg 78.240436 -0.000000 -0.000000
LeftFoot -19.077082 21.419547 -11.883651
LeftToeBase -63.685171 -0.000000 0.000000
RightUpLeg -103.765092 12.899486 10.511608
RightLeg 107.719959 -0.000000 -0.000000
RightFoot -38.877019 -22.782544 14.540572
RightToeBase 24.371263 -0.000000 -0.000000
397
root 18.653751 17.785029 -19.763683 -107.956217 81.032539 -124.509909
Spine -2.743178 -5.235149 12.386503
Head 13.224936 2.150837 -4.560806
LeftShoulder -12.769013 -26.726264 5.687292
LeftArm -11.423628 0.940537 -26.031922
LeftForeArm 4.926548 0.000000 2.628963
LeftHand -3.616864 0.000000 1.495661
LeftHandThumb1 -26.253704 0.000000 33.147579
RightShoulder -7.697141 -10.911773 -4.138759
RightArm 12.320123 26.255290 34.634827
RightForeArm -30.049549 -0.000000 14.485836
RightHand -3.066758 0.000000 2.556787
RightHandThumb1 -24.326973 -0.000000 -32.862282
LeftUpLeg 7.720253 13.812273 7.800294
LeftLeg 78.283299 -0.000000 -0.000000
LeftFoot -18.987578 21.337935 -11.895800
LeftToeBase -63.751818 -0.000000 0.000000
RightUpLeg -103.780942 12.879840 10.510932
RightLeg 107.729523 -0.000000 -0.000000
RightFoot -38.808858 -22.766743 14.515734
RightToeBase 24.379915 -0.000000 -0.000000
